<svg xmlns="http://www.w3.org/2000/svg" xmlns:xlink="http://www.w3.org/1999/xlink" xmlns:lucid="lucid" width="2342" height="1762"><g transform="translate(541 949.0935385805333)" lucid:page-tab-id="uP1BopAARZY8"><path d="M-540-948.1h2340v1760H-540z" stroke="#000" stroke-opacity="0" stroke-width="2" fill="#f2f3f5"/><path d="M-540-636.77h420V811.9h-420z" stroke="#000" stroke-opacity="0" stroke-width="2" fill="#dedeff"/><path d="M-231.34-631.7c0 55.4-44.17 100.3-98.66 100.3-54.5 0-98.66-44.9-98.66-100.3 0-55.38 44.17-100.28 98.66-100.28 54.5 0 98.66 44.9 98.66 100.3z" stroke="#000" stroke-opacity="0" stroke-width="2" fill="#ced4db"/><use xlink:href="#a" transform="matrix(1,0,0,1,-423.65631815776237,-726.9791681788589) translate(66.67919921875 88.9802734375)"/><use xlink:href="#b" transform="matrix(1,0,0,1,-423.65631815776237,-726.9791681788589) translate(64.1787109375 115.1154296875)"/><path d="M-540-948.1h2340v189.5H-540z" stroke="#000" stroke-opacity="0" stroke-width="2" fill="#dfe3e8"/><path d="M-540-444.1a4 4 0 0 1 4-4h372a4 4 0 0 1 4 4v72a4 4 0 0 1-4 4h-372a4 4 0 0 1-4-4zM-540-324.1a4 4 0 0 1 4-4h372a4 4 0 0 1 4 4v72a4 4 0 0 1-4 4h-372a4 4 0 0 1-4-4zM-540-204.1a4 4 0 0 1 4-4h372a4 4 0 0 1 4 4v72a4 4 0 0 1-4 4h-372a4 4 0 0 1-4-4zM-540-84.1a4 4 0 0 1 4-4h372a4 4 0 0 1 4 4v72a4 4 0 0 1-4 4h-372a4 4 0 0 1-4-4z" stroke="#000" stroke-opacity="0" stroke-width="2" fill="#9391ff"/><path d="M0-868.1h1260v36.86H0z" stroke="#000" stroke-opacity="0" stroke-width="2" fill="#f2f3f5"/><use xlink:href="#c" transform="matrix(1,0,0,1,5,-863.0935385805332) translate(562.3427734375 20.0478515625)"/><use xlink:href="#d" transform="matrix(1,0,0,1,5,-863.0935385805332) translate(627.1357421875 20.0478515625)"/><path d="M1170-864.1a4 4 0 0 1 4-4h82a4 4 0 0 1 4 4v28.86a4 4 0 0 1-4 4h-82a4 4 0 0 1-4-4z" stroke="#000" stroke-opacity="0" stroke-width="2" fill="#9391ff"/><path d="M1520-886.42a4 4 0 0 1 4-4h192a4 4 0 0 1 4 4v7.88a4 4 0 0 1-4 4h-192a4 4 0 0 1-4-4zM1520-853.6a4 4 0 0 1 4-4h192a4 4 0 0 1 4 4v7.87a4 4 0 0 1-4 4h-192a4 4 0 0 1-4-4zM1520-820.8a4 4 0 0 1 4-4h192a4 4 0 0 1 4 4v7.88a4 4 0 0 1-4 4h-192a4 4 0 0 1-4-4zM-500-884.1a4 4 0 0 1 4-4h312a4 4 0 0 1 4 4v67.5a4 4 0 0 1-4 4h-312a4 4 0 0 1-4-4z" stroke="#000" stroke-opacity="0" stroke-width="2" fill="#ced4db"/><use xlink:href="#e" transform="matrix(1,0,0,1,-495,-883.0935385805335) translate(96.271484375 39.5478515625)"/><use xlink:href="#f" transform="matrix(1,0,0,1,-495,-883.0935385805335) translate(182.73828125 39.5478515625)"/><path d="M-540 695.9a4 4 0 0 1 4-4h372a4 4 0 0 1 4 4v72a4 4 0 0 1-4 4h-372a4 4 0 0 1-4-4z" stroke="#000" stroke-opacity="0" stroke-width="2" fill="#9391ff"/><path d="M1403.9-597.2h203.87v200H1403.9z" stroke="#000" stroke-opacity="0" stroke-width="2" fill="#fff"/><path d="M83.9-597.2h203.87v200H83.9zM303.9-597.2h203.87v200H303.9zM743.9-597.2h203.87v200H743.9zM963.9-597.2h203.87v200H963.9zM523.9-597.2h203.87v200H523.9zM1183.9-597.2h203.87v200H1183.9z" stroke="#000" stroke-opacity="0" stroke-width="2" fill="#dfe3e8"/><path d="M83.9-382.04h203.87v200H83.9zM303.9-382.04h203.87v200H303.9zM523.9-382.04h203.87v200H523.9zM743.9-382.04h203.87v200H743.9zM963.9-382.04h203.87v200H963.9zM1183.9-382.04h203.87v200H1183.9zM1403.9-382.04h203.87v200H1403.9zM83.9-166.86h203.87v200H83.9zM303.9-166.86h203.87v200H303.9zM523.9-166.86h203.87v200H523.9zM743.9-166.86h203.87v200H743.9zM963.9-166.86h203.87v200H963.9zM1183.9-166.86h203.87v200H1183.9zM1403.9-166.86h203.87v200H1403.9zM80 48.31l203.9.02v200H80zM300 48.31l203.9.02v200H300zM520 48.31l203.9.02v200H520zM740 48.31l203.9.02v200H740zM960 48.31l203.9.02v200H960zM1180 48.31l203.9.02v200H1180zM1400 48.31l203.9.02v200H1400zM80 263.5h203.9v200H80zM300 263.5h203.9v200H300zM520 263.5h203.9v200H520zM740 263.5h203.9v200H740zM960 263.5h203.9v200H960zM1180 263.5h203.9v200H1180zM1400 263.5h203.9v200H1400zM80 478.67h203.9v200H80z" stroke="#000" stroke-opacity="0" stroke-width="2" fill="#fff"/><path d="M300 478.67h203.9v200H300zM520 478.67h203.9v200H520zM960 478.67h203.9v200H960zM1180 478.67h203.9v200H1180zM740 478.67h203.9v200H740zM1400 478.67h203.9v200H1400z" stroke="#000" stroke-opacity="0" stroke-width="2" fill="#dfe3e8"/><defs><path d="M180 0v-1490h510c348 0 508 209 508 474 0 266-160 477-507 477H370V0H180zm190-706h312c236 0 327-133 327-310 0-176-91-307-329-307H370v617" id="g"/><path d="M158 0v-1118h174v172h12c41-113 157-188 290-188 26 0 70 2 91 3v181c-11-2-60-10-108-10-161 0-279 109-279 260V0H158" id="h"/><path d="M613 24c-304 0-509-231-509-576 0-350 205-580 509-580 305 0 511 230 511 580 0 345-206 576-511 576zm0-161c226 0 329-195 329-415 0-222-103-419-329-419-223 0-326 196-326 419 0 220 103 415 326 415" id="i"/><path d="M678-1118v154H420V0H240v-964H20v-154h220v-149c0-194 155-293 318-293 85 0 141 18 168 30l-50 154c-19-6-47-17-97-17-111 0-159 58-159 166v109h258" id="j"/><path d="M158 0v-1118h180V0H158zm91-1301c-68 0-125-53-125-119s57-119 125-119c69 0 126 53 126 119s-57 119-126 119" id="k"/><path d="M338-1490V0H158v-1490h180" id="l"/><path d="M628 24c-324 0-524-230-524-574 0-343 198-582 503-582 237 0 487 146 487 559v75H286c9 234 145 362 343 362 132 0 231-58 273-172l174 48C1024-91 857 24 628 24zM287-650h624c-17-190-120-322-304-322-192 0-309 151-320 322" id="m"/><g id="a"><use transform="matrix(0.0087890625,0,0,0.0087890625,0,0)" xlink:href="#g"/><use transform="matrix(0.0087890625,0,0,0.0087890625,11.49609375,0)" xlink:href="#h"/><use transform="matrix(0.0087890625,0,0,0.0087890625,17.9736328125,0)" xlink:href="#i"/><use transform="matrix(0.0087890625,0,0,0.0087890625,28.7666015625,0)" xlink:href="#j"/><use transform="matrix(0.0087890625,0,0,0.0087890625,35.4287109375,0)" xlink:href="#k"/><use transform="matrix(0.0087890625,0,0,0.0087890625,39.7880859375,0)" xlink:href="#l"/><use transform="matrix(0.0087890625,0,0,0.0087890625,44.1474609375,0)" xlink:href="#m"/></g><path d="M613 24c-304 0-509-231-509-576 0-350 205-580 509-580 216 0 392 114 453 309l-173 49c-33-115-133-197-280-197-223 0-326 196-326 419 0 220 103 415 326 415 150 0 252-85 285-206l172 49C1010-95 832 24 613 24" id="n"/><path d="M598-1118v154H368v674c0 100 37 144 132 144 23 0 62-6 92-12L629-6c-37 13-88 20-134 20-193 0-307-107-307-290v-688H20v-154h168v-266h180v266h230" id="o"/><path d="M537 14c-226 0-379-139-379-422v-710h180v695c0 172 97 275 253 275 160 0 281-109 281-300v-670h181V0H879v-209C806-46 684 14 537 14" id="p"/><g id="b"><use transform="matrix(0.0087890625,0,0,0.0087890625,0,0)" xlink:href="#g"/><use transform="matrix(0.0087890625,0,0,0.0087890625,11.49609375,0)" xlink:href="#k"/><use transform="matrix(0.0087890625,0,0,0.0087890625,15.85546875,0)" xlink:href="#n"/><use transform="matrix(0.0087890625,0,0,0.0087890625,26.138671875,0)" xlink:href="#o"/><use transform="matrix(0.0087890625,0,0,0.0087890625,32.02734375,0)" xlink:href="#p"/><use transform="matrix(0.0087890625,0,0,0.0087890625,42.6708984375,0)" xlink:href="#h"/><use transform="matrix(0.0087890625,0,0,0.0087890625,49.1484375,0)" xlink:href="#m"/></g><path fill="#979ea8" d="M657 26c-323 0-524-166-541-416h195c15 169 171 246 346 246 202 0 356-106 356-265 5-203-294-238-475-293-239-73-380-191-380-389 0-252 224-419 512-419 294 0 499 171 508 396H992c-17-145-151-228-328-228-193 0-321 102-321 242 0 156 175 211 284 241l149 41c160 44 422 134 422 412 0 244-197 432-541 432" id="q"/><path fill="#979ea8" d="M628 24c-324 0-524-230-524-574 0-343 198-582 503-582 237 0 487 146 487 559v75H286c9 234 145 362 343 362 132 0 231-58 273-172l174 48C1024-91 857 24 628 24zM287-650h624c-17-190-120-322-304-322-192 0-309 151-320 322" id="r"/><path fill="#979ea8" d="M471 26C259 26 90-98 90-318c0-256 228-303 435-329 202-27 287-16 287-108 0-139-79-219-234-219-161 0-248 86-283 164l-173-57c86-203 278-265 451-265 150 0 419 46 419 395V0H815v-152h-12C765-73 660 26 471 26zm31-159c199 0 310-134 310-271v-155c-30 35-226 55-295 64-131 17-246 59-246 186 0 116 97 176 231 176" id="s"/><path fill="#979ea8" d="M158 0v-1118h174v172h12c41-113 157-188 290-188 26 0 70 2 91 3v181c-11-2-60-10-108-10-161 0-279 109-279 260V0H158" id="t"/><path fill="#979ea8" d="M613 24c-304 0-509-231-509-576 0-350 205-580 509-580 216 0 392 114 453 309l-173 49c-33-115-133-197-280-197-223 0-326 196-326 419 0 220 103 415 326 415 150 0 252-85 285-206l172 49C1010-95 832 24 613 24" id="u"/><path fill="#979ea8" d="M338-670V0H158v-1490h180v566c73-149 190-208 336-208 226 0 379 139 379 422V0H872v-695c0-172-96-275-252-275-161 0-282 109-282 300" id="v"/><g id="c"><use transform="matrix(0.0087890625,0,0,0.0087890625,0,0)" xlink:href="#q"/><use transform="matrix(0.0087890625,0,0,0.0087890625,11.548828125,0)" xlink:href="#r"/><use transform="matrix(0.0087890625,0,0,0.0087890625,22.21875,0)" xlink:href="#s"/><use transform="matrix(0.0087890625,0,0,0.0087890625,32.326171875,0)" xlink:href="#t"/><use transform="matrix(0.0087890625,0,0,0.0087890625,38.8037109375,0)" xlink:href="#u"/><use transform="matrix(0.0087890625,0,0,0.0087890625,49.0869140625,0)" xlink:href="#v"/></g><path fill="#979ea8" d="M598-1118v154H368v674c0 100 37 144 132 144 23 0 62-6 92-12L629-6c-37 13-88 20-134 20-193 0-307-107-307-290v-688H20v-154h168v-266h180v266h230" id="w"/><path fill="#979ea8" d="M538 24C308 24 148-78 108-271l171-41c32 123 123 178 257 178 156 0 256-77 256-169 0-77-54-128-164-154l-186-44c-203-48-300-148-300-305 0-192 176-326 414-326 230 0 351 112 402 269l-163 42c-31-80-94-158-238-158-133 0-233 69-233 162 0 83 57 129 188 160l169 40c203 48 298 149 298 302 0 196-179 339-441 339" id="x"/><path fill="#979ea8" d="M158 0v-1490h180v865h22l478-493h223L593-638 1096 0H865L456-523 338-412V0H158" id="y"/><path fill="#979ea8" d="M295 13c-75 0-135-60-135-135s60-135 135-135 135 60 135 135S370 13 295 13" id="z"/><g id="d"><use transform="matrix(0.0087890625,0,0,0.0087890625,0,0)" xlink:href="#w"/><use transform="matrix(0.0087890625,0,0,0.0087890625,5.9765625,0)" xlink:href="#s"/><use transform="matrix(0.0087890625,0,0,0.0087890625,16.083984375,0)" xlink:href="#x"/><use transform="matrix(0.0087890625,0,0,0.0087890625,25.5849609375,0)" xlink:href="#y"/><use transform="matrix(0.0087890625,0,0,0.0087890625,35.4638671875,0)" xlink:href="#x"/><use transform="matrix(0.0087890625,0,0,0.0087890625,44.96484375,0)" xlink:href="#z"/><use transform="matrix(0.0087890625,0,0,0.0087890625,50.150390625,0)" xlink:href="#z"/><use transform="matrix(0.0087890625,0,0,0.0087890625,55.3359375,0)" xlink:href="#z"/></g><path d="M180 0v-1490h190v1322h690V0H180" id="A"/><path d="M611 442c-248 0-391-105-460-228l146-94c47 65 117 165 314 165 178 0 307-82 307-266v-224h-17C863-141 792-18 576-18c-268 0-472-195-472-546 0-346 197-568 476-568 216 0 288 133 326 193h17v-179h175V29c0 289-215 413-487 413zm-5-620c203 0 314-146 314-390 0-237-108-403-314-403-213 0-319 180-319 403 0 230 109 390 319 390" id="B"/><path d="M692-1560L212 224H46l480-1784h166" id="C"/><path d="M657 26c-323 0-524-166-541-416h195c15 169 171 246 346 246 202 0 356-106 356-265 5-203-294-238-475-293-239-73-380-191-380-389 0-252 224-419 512-419 294 0 499 171 508 396H992c-17-145-151-228-328-228-193 0-321 102-321 242 0 156 175 211 284 241l149 41c160 44 422 134 422 412 0 244-197 432-541 432" id="D"/><g id="e"><use transform="matrix(0.0087890625,0,0,0.0087890625,0,0)" xlink:href="#A"/><use transform="matrix(0.0087890625,0,0,0.0087890625,10.177734375,0)" xlink:href="#i"/><use transform="matrix(0.0087890625,0,0,0.0087890625,20.970703125,0)" xlink:href="#B"/><use transform="matrix(0.0087890625,0,0,0.0087890625,32.009765625,0)" xlink:href="#i"/><use transform="matrix(0.0087890625,0,0,0.0087890625,42.802734375,0)" xlink:href="#C"/><use transform="matrix(0.0087890625,0,0,0.0087890625,49.2890625,0)" xlink:href="#D"/><use transform="matrix(0.0087890625,0,0,0.0087890625,60.837890625,0)" xlink:href="#k"/><use transform="matrix(0.0087890625,0,0,0.0087890625,65.197265625,0)" xlink:href="#o"/><use transform="matrix(0.0087890625,0,0,0.0087890625,70.91015625,0)" xlink:href="#m"/></g><g id="f"><use transform="matrix(0.0087890625,0,0,0.0087890625,0,0)" xlink:href="#o"/><use transform="matrix(0.0087890625,0,0,0.0087890625,5.888671875,0)" xlink:href="#k"/><use transform="matrix(0.0087890625,0,0,0.0087890625,10.248046875,0)" xlink:href="#o"/><use transform="matrix(0.0087890625,0,0,0.0087890625,16.13671875,0)" xlink:href="#l"/><use transform="matrix(0.0087890625,0,0,0.0087890625,20.49609375,0)" xlink:href="#m"/></g></defs></g></svg>