<svg xmlns="http://www.w3.org/2000/svg" xmlns:xlink="http://www.w3.org/1999/xlink" xmlns:lucid="lucid" width="2342" height="1762"><g transform="translate(461 901)" lucid:page-tab-id="uP1BopAARZY8"><path d="M-460-900h2340V860H-460z" stroke="#000" stroke-opacity="0" stroke-width="2" fill="#f2f3f5"/><path d="M-460-588.68h420V860h-420z" stroke="#000" stroke-opacity="0" stroke-width="2" fill="#dedeff"/><path d="M-151.34-583.6c0 55.4-44.17 100.3-98.66 100.3-54.5 0-98.66-44.9-98.66-100.3 0-55.38 44.17-100.3 98.66-100.3 54.5 0 98.66 44.9 98.66 100.3z" stroke="#000" stroke-opacity="0" stroke-width="2" fill="#ced4db"/><use xlink:href="#a" transform="matrix(1,0,0,1,-343.65631815776237,-678.8856295983254) translate(66.67919921875 88.9802734375)"/><use xlink:href="#b" transform="matrix(1,0,0,1,-343.65631815776237,-678.8856295983254) translate(64.1787109375 115.1154296875)"/><path d="M20-400h820V820H20z" stroke="#000" stroke-opacity="0" stroke-width="2" fill="#fff"/><path d="M-460-900h2340v189.48H-460z" stroke="#000" stroke-opacity="0" stroke-width="2" fill="#dfe3e8"/><path d="M80-537.54a4 4 0 0 1 4-4h892a4 4 0 0 1 4 4v67.5a4 4 0 0 1-4 4H84a4 4 0 0 1-4-4z" stroke="#000" stroke-opacity="0" stroke-width="2" fill="#4c535d"/><path d="M-460-396a4 4 0 0 1 4-4h372a4 4 0 0 1 4 4v72a4 4 0 0 1-4 4h-372a4 4 0 0 1-4-4zM-460-276a4 4 0 0 1 4-4h372a4 4 0 0 1 4 4v72a4 4 0 0 1-4 4h-372a4 4 0 0 1-4-4zM-460-156a4 4 0 0 1 4-4h372a4 4 0 0 1 4 4v72a4 4 0 0 1-4 4h-372a4 4 0 0 1-4-4zM-460-36a4 4 0 0 1 4-4h372a4 4 0 0 1 4 4v72a4 4 0 0 1-4 4h-372a4 4 0 0 1-4-4z" stroke="#000" stroke-opacity="0" stroke-width="2" fill="#9391ff"/><path d="M80-820h1260v36.85H80z" stroke="#000" stroke-opacity="0" stroke-width="2" fill="#f2f3f5"/><use xlink:href="#c" transform="matrix(1,0,0,1,85,-815) translate(562.3427734375 20.0478515625)"/><use xlink:href="#d" transform="matrix(1,0,0,1,85,-815) translate(627.1357421875 20.0478515625)"/><path d="M1250-816a4 4 0 0 1 4-4h82a4 4 0 0 1 4 4v28.85a4 4 0 0 1-4 4h-82a4 4 0 0 1-4-4z" stroke="#000" stroke-opacity="0" stroke-width="2" fill="#9391ff"/><path d="M1600-838.33a4 4 0 0 1 4-4h192a4 4 0 0 1 4 4v7.88a4 4 0 0 1-4 4h-192a4 4 0 0 1-4-4zM1600-805.52a4 4 0 0 1 4-4h192a4 4 0 0 1 4 4v7.9a4 4 0 0 1-4 4h-192a4 4 0 0 1-4-4zM1600-772.7a4 4 0 0 1 4-4h192a4 4 0 0 1 4 4v7.88a4 4 0 0 1-4 4h-192a4 4 0 0 1-4-4zM-420-836a4 4 0 0 1 4-4h312a4 4 0 0 1 4 4v67.5a4 4 0 0 1-4 4h-312a4 4 0 0 1-4-4z" stroke="#000" stroke-opacity="0" stroke-width="2" fill="#ced4db"/><use xlink:href="#e" transform="matrix(1,0,0,1,-415,-835) translate(96.271484375 39.5478515625)"/><use xlink:href="#f" transform="matrix(1,0,0,1,-415,-835) translate(182.73828125 39.5478515625)"/><path d="M920-400h900v520H920zM920 186.04h900V820H920zM40-380h160v120H40z" stroke="#000" stroke-opacity="0" stroke-width="2" fill="#fff"/><use xlink:href="#g" transform="matrix(1,0,0,1,45,-375) translate(49.4501953125 61.5478515625)"/><path d="M940-388.1h160v120H940z" stroke="#000" stroke-opacity="0" stroke-width="2" fill="#fff"/><use xlink:href="#h" transform="matrix(1,0,0,1,945,-383.0935385805333) translate(25.74169921875 61.5478515625)"/><use xlink:href="#i" transform="matrix(1,0,0,1,945,-383.0935385805333) translate(70.59228515625 61.5478515625)"/><path d="M100-242.3a4 4 0 0 1 4-4h652a4 4 0 0 1 4 4v192a4 4 0 0 1-4 4H104a4 4 0 0 1-4-4z" stroke="#000" stroke-opacity="0" stroke-width="2" fill="#979ea8"/><path d="M180-209.7a4 4 0 0 1 4-4h492a4 4 0 0 1 4 4v18.84a4 4 0 0 1-4 4H184a4 4 0 0 1-4-4zM180-154.25a4 4 0 0 1 4-4h492a4 4 0 0 1 4 4v18.84a4 4 0 0 1-4 4H184a4 4 0 0 1-4-4zM180-98.8a4 4 0 0 1 4-4h492a4 4 0 0 1 4 4v18.83a4 4 0 0 1-4 4H184a4 4 0 0 1-4-4z" stroke="#000" stroke-opacity="0" stroke-width="2" fill="#ced4db"/><path d="M100-6.1a4 4 0 0 1 4-4h652a4 4 0 0 1 4 4v192a4 4 0 0 1-4 4H104a4 4 0 0 1-4-4z" stroke="#000" stroke-opacity="0" stroke-width="2" fill="#979ea8"/><path d="M180 26.5a4 4 0 0 1 4-4h332a4 4 0 0 1 4 4v18.85a4 4 0 0 1-4 4H184a4 4 0 0 1-4-4zM180 81.95a4 4 0 0 1 4-4h332a4 4 0 0 1 4 4v18.84a4 4 0 0 1-4 4H184a4 4 0 0 1-4-4zM180 137.4a4 4 0 0 1 4-4h332a4 4 0 0 1 4 4v18.83a4 4 0 0 1-4 4H184a4 4 0 0 1-4-4z" stroke="#000" stroke-opacity="0" stroke-width="2" fill="#ced4db"/><path d="M100 229.32a4 4 0 0 1 4-4h652a4 4 0 0 1 4 4v192a4 4 0 0 1-4 4H104a4 4 0 0 1-4-4z" stroke="#000" stroke-opacity="0" stroke-width="2" fill="#979ea8"/><path d="M180 261.94a4 4 0 0 1 4-4h492a4 4 0 0 1 4 4v18.83a4 4 0 0 1-4 4H184a4 4 0 0 1-4-4zM180 317.38a4 4 0 0 1 4-4h492a4 4 0 0 1 4 4v18.84a4 4 0 0 1-4 4H184a4 4 0 0 1-4-4zM180 372.82a4 4 0 0 1 4-4h492a4 4 0 0 1 4 4v18.84a4 4 0 0 1-4 4H184a4 4 0 0 1-4-4zM1240-100c0 66.27-53.73 120-120 120-66.27 0-120-53.73-120-120 0-66.27 53.73-120 120-120 66.27 0 120 53.73 120 120zM1500-100c0 66.27-53.73 120-120 120-66.27 0-120-53.73-120-120 0-66.27 53.73-120 120-120 66.27 0 120 53.73 120 120zM1760-100c0 66.27-53.73 120-120 120-66.27 0-120-53.73-120-120 0-66.27 53.73-120 120-120 66.27 0 120 53.73 120 120z" stroke="#000" stroke-opacity="0" stroke-width="2" fill="#ced4db"/><path d="M1040 24.8h160v80h-160z" stroke="#000" stroke-opacity="0" stroke-width="2" fill="#fff"/><use xlink:href="#j" transform="matrix(1,0,0,1,1045,29.7908752605059) translate(28.59375 41.5478515625)"/><path d="M1300 22.5h160v80h-160z" stroke="#000" stroke-opacity="0" stroke-width="2" fill="#fff"/><use xlink:href="#k" transform="matrix(1,0,0,1,1305,27.50945655747229) translate(26.8447265625 41.5478515625)"/><use xlink:href="#l" transform="matrix(1,0,0,1,1305,27.50945655747229) translate(47.3759765625 41.5478515625)"/><path d="M1560 22.5h160v80h-160z" stroke="#000" stroke-opacity="0" stroke-width="2" fill="#fff"/><use xlink:href="#m" transform="matrix(1,0,0,1,1565,27.50945655747229) translate(26.3876953125 41.5478515625)"/><use xlink:href="#n" transform="matrix(1,0,0,1,1565,27.50945655747229) translate(61.693359375 41.5478515625)"/><path d="M940 200h160v120H940z" stroke="#000" stroke-opacity="0" stroke-width="2" fill="#fff"/><use xlink:href="#o" transform="matrix(1,0,0,1,945,205) translate(2.05078125 61.5478515625)"/><use xlink:href="#p" transform="matrix(1,0,0,1,945,205) translate(54.802734375 61.5478515625)"/><use xlink:href="#q" transform="matrix(1,0,0,1,945,205) translate(75.861328125 61.5478515625)"/><use xlink:href="#r" transform="matrix(1,0,0,1,945,205) translate(91.03125 61.5478515625)"/><path d="M940 320h110.97v460H940z" stroke="#000" stroke-opacity="0" stroke-width="2" fill="#f2f3f5"/><path d="M1189.68 324a4 4 0 0 1 4-4h102.96a4 4 0 0 1 4 4v452a4 4 0 0 1-4 4h-102.96a4 4 0 0 1-4-4z" stroke="#000" stroke-opacity="0" stroke-width="2" fill="#ced4db"/><path d="M1064.84 320h110.97v460h-110.96z" stroke="#000" stroke-opacity="0" stroke-width="2" fill="#f2f3f5"/><path d="M1314.52 324a4 4 0 0 1 4-4h102.96a4 4 0 0 1 4 4v452a4 4 0 0 1-4 4h-102.96a4 4 0 0 1-4-4zM1439.36 324a4 4 0 0 1 4-4h102.96a4 4 0 0 1 4 4v452a4 4 0 0 1-4 4h-102.96a4 4 0 0 1-4-4zM1564.2 324a4 4 0 0 1 4-4h102.96a4 4 0 0 1 4 4v452a4 4 0 0 1-4 4H1568.2a4 4 0 0 1-4-4zM1689.03 324a4 4 0 0 1 4-4H1796a4 4 0 0 1 4 4v452a4 4 0 0 1-4 4h-102.97a4 4 0 0 1-4-4z" stroke="#000" stroke-opacity="0" stroke-width="2" fill="#ced4db"/><path d="M620-341h140v42H620z" stroke="#000" stroke-opacity="0" stroke-width="2" fill="#dedeff"/><use xlink:href="#s" transform="matrix(1,0,0,1,625,-335.9915719266303) translate(25.825566406250005 22.841292317708334)"/><use xlink:href="#t" transform="matrix(1,0,0,1,625,-335.9915719266303) translate(67.121259765625 22.841292317708334)"/><path d="M560.8 22.5h153.36v139.02H560.8z" stroke="#000" stroke-opacity="0" stroke-width="2" fill="#fff"/><path d="M571.5 36.2a4 4 0 0 1 4-4h123.97a4 4 0 0 1 4 4v111.63a4 4 0 0 1-4 4H575.5a4 4 0 0 1-4-4z" stroke="#000" stroke-opacity="0" stroke-width="2" fill="#979ea8"/><path d="M606.04 61c0 6.96-3.92 12.6-8.77 12.6s-8.77-5.64-8.77-12.6c0-6.97 3.92-12.62 8.77-12.62s8.77 5.65 8.77 12.6zM581.47 135.83a5.18 5.18 0 0 0 4.72 7.3h38.6a5.18 5.18 0 0 0 4.73-7.3L608.78 89.6a3.6 3.6 0 0 0-6.56 0z" stroke="#000" stroke-opacity="0" fill="#fff"/><path d="M609.6 135.96a4.96 4.96 0 0 0 4.44 7.16h75.06a4.96 4.96 0 0 0 4.44-7.16l-38.42-77.5a3.96 3.96 0 0 0-7.1 0z" stroke="#000" stroke-opacity="0" fill="#fff"/><path d="M1210.32-100.14c0 49.7-40.3 90-90 90s-90-40.3-90-90 40.3-90 90-90 90 40.3 90 90z" stroke="#000" stroke-opacity="0" stroke-width="2" fill="#fff"/><g><use xlink:href="#u" transform="matrix(1,0,0,1,1035.3225806451633,-185.1418980667649) translate(40.546875 99.55078125)"/></g><path d="M1470-100c0 49.7-40.3 90-90 90s-90-40.3-90-90 40.3-90 90-90 90 40.3 90 90z" stroke="#000" stroke-opacity="0" stroke-width="2" fill="#fff"/><g><use xlink:href="#v" transform="matrix(1,0,0,1,1295,-185.00000000000003) translate(40.5859375 99.55078125)"/></g><path d="M1730.32-100c0 49.7-40.3 90-90 90s-90-40.3-90-90 40.3-90 90-90 90 40.3 90 90z" stroke="#000" stroke-opacity="0" stroke-width="2" fill="#fff"/><g><use xlink:href="#w" transform="matrix(1,0,0,1,1555.3225806451676,-185.00000000000003) translate(40.390625 99.55078125)"/></g><path d="M-460 744a4 4 0 0 1 4-4h372a4 4 0 0 1 4 4v72a4 4 0 0 1-4 4h-372a4 4 0 0 1-4-4z" stroke="#000" stroke-opacity="0" stroke-width="2" fill="#9391ff"/><defs><path d="M180 0v-1490h510c348 0 508 209 508 474 0 266-160 477-507 477H370V0H180zm190-706h312c236 0 327-133 327-310 0-176-91-307-329-307H370v617" id="x"/><path d="M158 0v-1118h174v172h12c41-113 157-188 290-188 26 0 70 2 91 3v181c-11-2-60-10-108-10-161 0-279 109-279 260V0H158" id="y"/><path d="M613 24c-304 0-509-231-509-576 0-350 205-580 509-580 305 0 511 230 511 580 0 345-206 576-511 576zm0-161c226 0 329-195 329-415 0-222-103-419-329-419-223 0-326 196-326 419 0 220 103 415 326 415" id="z"/><path d="M678-1118v154H420V0H240v-964H20v-154h220v-149c0-194 155-293 318-293 85 0 141 18 168 30l-50 154c-19-6-47-17-97-17-111 0-159 58-159 166v109h258" id="A"/><path d="M158 0v-1118h180V0H158zm91-1301c-68 0-125-53-125-119s57-119 125-119c69 0 126 53 126 119s-57 119-126 119" id="B"/><path d="M338-1490V0H158v-1490h180" id="C"/><path d="M628 24c-324 0-524-230-524-574 0-343 198-582 503-582 237 0 487 146 487 559v75H286c9 234 145 362 343 362 132 0 231-58 273-172l174 48C1024-91 857 24 628 24zM287-650h624c-17-190-120-322-304-322-192 0-309 151-320 322" id="D"/><g id="a"><use transform="matrix(0.0087890625,0,0,0.0087890625,0,0)" xlink:href="#x"/><use transform="matrix(0.0087890625,0,0,0.0087890625,11.49609375,0)" xlink:href="#y"/><use transform="matrix(0.0087890625,0,0,0.0087890625,17.9736328125,0)" xlink:href="#z"/><use transform="matrix(0.0087890625,0,0,0.0087890625,28.7666015625,0)" xlink:href="#A"/><use transform="matrix(0.0087890625,0,0,0.0087890625,35.4287109375,0)" xlink:href="#B"/><use transform="matrix(0.0087890625,0,0,0.0087890625,39.7880859375,0)" xlink:href="#C"/><use transform="matrix(0.0087890625,0,0,0.0087890625,44.1474609375,0)" xlink:href="#D"/></g><path d="M613 24c-304 0-509-231-509-576 0-350 205-580 509-580 216 0 392 114 453 309l-173 49c-33-115-133-197-280-197-223 0-326 196-326 419 0 220 103 415 326 415 150 0 252-85 285-206l172 49C1010-95 832 24 613 24" id="E"/><path d="M598-1118v154H368v674c0 100 37 144 132 144 23 0 62-6 92-12L629-6c-37 13-88 20-134 20-193 0-307-107-307-290v-688H20v-154h168v-266h180v266h230" id="F"/><path d="M537 14c-226 0-379-139-379-422v-710h180v695c0 172 97 275 253 275 160 0 281-109 281-300v-670h181V0H879v-209C806-46 684 14 537 14" id="G"/><g id="b"><use transform="matrix(0.0087890625,0,0,0.0087890625,0,0)" xlink:href="#x"/><use transform="matrix(0.0087890625,0,0,0.0087890625,11.49609375,0)" xlink:href="#B"/><use transform="matrix(0.0087890625,0,0,0.0087890625,15.85546875,0)" xlink:href="#E"/><use transform="matrix(0.0087890625,0,0,0.0087890625,26.138671875,0)" xlink:href="#F"/><use transform="matrix(0.0087890625,0,0,0.0087890625,32.02734375,0)" xlink:href="#G"/><use transform="matrix(0.0087890625,0,0,0.0087890625,42.6708984375,0)" xlink:href="#y"/><use transform="matrix(0.0087890625,0,0,0.0087890625,49.1484375,0)" xlink:href="#D"/></g><path fill="#979ea8" d="M657 26c-323 0-524-166-541-416h195c15 169 171 246 346 246 202 0 356-106 356-265 5-203-294-238-475-293-239-73-380-191-380-389 0-252 224-419 512-419 294 0 499 171 508 396H992c-17-145-151-228-328-228-193 0-321 102-321 242 0 156 175 211 284 241l149 41c160 44 422 134 422 412 0 244-197 432-541 432" id="H"/><path fill="#979ea8" d="M628 24c-324 0-524-230-524-574 0-343 198-582 503-582 237 0 487 146 487 559v75H286c9 234 145 362 343 362 132 0 231-58 273-172l174 48C1024-91 857 24 628 24zM287-650h624c-17-190-120-322-304-322-192 0-309 151-320 322" id="I"/><path fill="#979ea8" d="M471 26C259 26 90-98 90-318c0-256 228-303 435-329 202-27 287-16 287-108 0-139-79-219-234-219-161 0-248 86-283 164l-173-57c86-203 278-265 451-265 150 0 419 46 419 395V0H815v-152h-12C765-73 660 26 471 26zm31-159c199 0 310-134 310-271v-155c-30 35-226 55-295 64-131 17-246 59-246 186 0 116 97 176 231 176" id="J"/><path fill="#979ea8" d="M158 0v-1118h174v172h12c41-113 157-188 290-188 26 0 70 2 91 3v181c-11-2-60-10-108-10-161 0-279 109-279 260V0H158" id="K"/><path fill="#979ea8" d="M613 24c-304 0-509-231-509-576 0-350 205-580 509-580 216 0 392 114 453 309l-173 49c-33-115-133-197-280-197-223 0-326 196-326 419 0 220 103 415 326 415 150 0 252-85 285-206l172 49C1010-95 832 24 613 24" id="L"/><path fill="#979ea8" d="M338-670V0H158v-1490h180v566c73-149 190-208 336-208 226 0 379 139 379 422V0H872v-695c0-172-96-275-252-275-161 0-282 109-282 300" id="M"/><g id="c"><use transform="matrix(0.0087890625,0,0,0.0087890625,0,0)" xlink:href="#H"/><use transform="matrix(0.0087890625,0,0,0.0087890625,11.548828125,0)" xlink:href="#I"/><use transform="matrix(0.0087890625,0,0,0.0087890625,22.21875,0)" xlink:href="#J"/><use transform="matrix(0.0087890625,0,0,0.0087890625,32.326171875,0)" xlink:href="#K"/><use transform="matrix(0.0087890625,0,0,0.0087890625,38.8037109375,0)" xlink:href="#L"/><use transform="matrix(0.0087890625,0,0,0.0087890625,49.0869140625,0)" xlink:href="#M"/></g><path fill="#979ea8" d="M598-1118v154H368v674c0 100 37 144 132 144 23 0 62-6 92-12L629-6c-37 13-88 20-134 20-193 0-307-107-307-290v-688H20v-154h168v-266h180v266h230" id="N"/><path fill="#979ea8" d="M538 24C308 24 148-78 108-271l171-41c32 123 123 178 257 178 156 0 256-77 256-169 0-77-54-128-164-154l-186-44c-203-48-300-148-300-305 0-192 176-326 414-326 230 0 351 112 402 269l-163 42c-31-80-94-158-238-158-133 0-233 69-233 162 0 83 57 129 188 160l169 40c203 48 298 149 298 302 0 196-179 339-441 339" id="O"/><path fill="#979ea8" d="M158 0v-1490h180v865h22l478-493h223L593-638 1096 0H865L456-523 338-412V0H158" id="P"/><path fill="#979ea8" d="M295 13c-75 0-135-60-135-135s60-135 135-135 135 60 135 135S370 13 295 13" id="Q"/><g id="d"><use transform="matrix(0.0087890625,0,0,0.0087890625,0,0)" xlink:href="#N"/><use transform="matrix(0.0087890625,0,0,0.0087890625,5.9765625,0)" xlink:href="#J"/><use transform="matrix(0.0087890625,0,0,0.0087890625,16.083984375,0)" xlink:href="#O"/><use transform="matrix(0.0087890625,0,0,0.0087890625,25.5849609375,0)" xlink:href="#P"/><use transform="matrix(0.0087890625,0,0,0.0087890625,35.4638671875,0)" xlink:href="#O"/><use transform="matrix(0.0087890625,0,0,0.0087890625,44.96484375,0)" xlink:href="#Q"/><use transform="matrix(0.0087890625,0,0,0.0087890625,50.150390625,0)" xlink:href="#Q"/><use transform="matrix(0.0087890625,0,0,0.0087890625,55.3359375,0)" xlink:href="#Q"/></g><path d="M180 0v-1490h190v1322h690V0H180" id="R"/><path d="M611 442c-248 0-391-105-460-228l146-94c47 65 117 165 314 165 178 0 307-82 307-266v-224h-17C863-141 792-18 576-18c-268 0-472-195-472-546 0-346 197-568 476-568 216 0 288 133 326 193h17v-179h175V29c0 289-215 413-487 413zm-5-620c203 0 314-146 314-390 0-237-108-403-314-403-213 0-319 180-319 403 0 230 109 390 319 390" id="S"/><path d="M692-1560L212 224H46l480-1784h166" id="T"/><path d="M657 26c-323 0-524-166-541-416h195c15 169 171 246 346 246 202 0 356-106 356-265 5-203-294-238-475-293-239-73-380-191-380-389 0-252 224-419 512-419 294 0 499 171 508 396H992c-17-145-151-228-328-228-193 0-321 102-321 242 0 156 175 211 284 241l149 41c160 44 422 134 422 412 0 244-197 432-541 432" id="U"/><g id="e"><use transform="matrix(0.0087890625,0,0,0.0087890625,0,0)" xlink:href="#R"/><use transform="matrix(0.0087890625,0,0,0.0087890625,10.177734375,0)" xlink:href="#z"/><use transform="matrix(0.0087890625,0,0,0.0087890625,20.970703125,0)" xlink:href="#S"/><use transform="matrix(0.0087890625,0,0,0.0087890625,32.009765625,0)" xlink:href="#z"/><use transform="matrix(0.0087890625,0,0,0.0087890625,42.802734375,0)" xlink:href="#T"/><use transform="matrix(0.0087890625,0,0,0.0087890625,49.2890625,0)" xlink:href="#U"/><use transform="matrix(0.0087890625,0,0,0.0087890625,60.837890625,0)" xlink:href="#B"/><use transform="matrix(0.0087890625,0,0,0.0087890625,65.197265625,0)" xlink:href="#F"/><use transform="matrix(0.0087890625,0,0,0.0087890625,70.91015625,0)" xlink:href="#D"/></g><g id="f"><use transform="matrix(0.0087890625,0,0,0.0087890625,0,0)" xlink:href="#F"/><use transform="matrix(0.0087890625,0,0,0.0087890625,5.888671875,0)" xlink:href="#B"/><use transform="matrix(0.0087890625,0,0,0.0087890625,10.248046875,0)" xlink:href="#F"/><use transform="matrix(0.0087890625,0,0,0.0087890625,16.13671875,0)" xlink:href="#C"/><use transform="matrix(0.0087890625,0,0,0.0087890625,20.49609375,0)" xlink:href="#D"/></g><path d="M98-1322v-168h1126v168H757V0H567v-1322H98" id="V"/><path d="M798-719v166H144v-166h654" id="W"/><path d="M577 24c-279 0-473-224-473-580 0-354 195-576 474-576 218 0 287 134 324 193h14v-551h180V0H922v-173h-20C865-111 790 24 577 24zm27-161c203 0 314-172 314-421 0-247-108-413-314-413-212 0-317 181-317 413 0 235 108 421 317 421" id="X"/><g id="g"><use transform="matrix(0.0087890625,0,0,0.0087890625,0,0)" xlink:href="#V"/><use transform="matrix(0.0087890625,0,0,0.0087890625,10.212890625,0)" xlink:href="#z"/><use transform="matrix(0.0087890625,0,0,0.0087890625,21.005859375,0)" xlink:href="#W"/><use transform="matrix(0.0087890625,0,0,0.0087890625,29.28515625,0)" xlink:href="#X"/><use transform="matrix(0.0087890625,0,0,0.0087890625,40.306640625,0)" xlink:href="#z"/></g><path d="M471 26C259 26 90-98 90-318c0-256 228-303 435-329 202-27 287-16 287-108 0-139-79-219-234-219-161 0-248 86-283 164l-173-57c86-203 278-265 451-265 150 0 419 46 419 395V0H815v-152h-12C765-73 660 26 471 26zm31-159c199 0 310-134 310-271v-155c-30 35-226 55-295 64-131 17-246 59-246 186 0 116 97 176 231 176" id="Y"/><path d="M538 24C308 24 148-78 108-271l171-41c32 123 123 178 257 178 156 0 256-77 256-169 0-77-54-128-164-154l-186-44c-203-48-300-148-300-305 0-192 176-326 414-326 230 0 351 112 402 269l-163 42c-31-80-94-158-238-158-133 0-233 69-233 162 0 83 57 129 188 160l169 40c203 48 298 149 298 302 0 196-179 339-441 339" id="Z"/><path d="M158 0v-1490h180v865h22l478-493h223L593-638 1096 0H865L456-523 338-412V0H158" id="aa"/><g id="h"><use transform="matrix(0.0087890625,0,0,0.0087890625,0,0)" xlink:href="#V"/><use transform="matrix(0.0087890625,0,0,0.0087890625,10.30078125,0)" xlink:href="#Y"/><use transform="matrix(0.0087890625,0,0,0.0087890625,20.408203125,0)" xlink:href="#Z"/><use transform="matrix(0.0087890625,0,0,0.0087890625,29.9091796875,0)" xlink:href="#aa"/></g><g id="i"><use transform="matrix(0.0087890625,0,0,0.0087890625,0,0)" xlink:href="#U"/><use transform="matrix(0.0087890625,0,0,0.0087890625,11.548828125,0)" xlink:href="#F"/><use transform="matrix(0.0087890625,0,0,0.0087890625,17.525390625,0)" xlink:href="#Y"/><use transform="matrix(0.0087890625,0,0,0.0087890625,27.6328125,0)" xlink:href="#F"/><use transform="matrix(0.0087890625,0,0,0.0087890625,33.521484375,0)" xlink:href="#G"/><use transform="matrix(0.0087890625,0,0,0.0087890625,44.1650390625,0)" xlink:href="#Z"/></g><path d="M783 20c-382 0-661-292-661-764 0-473 279-766 661-766 302 0 548 182 601 489h-190c-42-204-217-313-411-313-268 0-476 208-476 590 0 381 209 588 476 588 195 0 369-110 411-313h190c-52 303-296 489-601 489" id="ab"/><path d="M158 0v-1118h175l1 205c55-151 181-225 313-225 147 0 245 90 285 228 53-141 190-228 352-228 194 0 352 125 352 384V0h-181v-749c0-161-105-225-225-225-151 0-243 103-243 244V0H807v-767c0-124-93-207-219-207-131 0-250 92-250 270V0H158" id="ac"/><path d="M158 418v-1536h174v179h20c37-59 106-193 324-193 279 0 474 222 474 576 0 356-194 580-473 580-213 0-288-135-325-197h-14v591H158zm492-555c209 0 317-186 317-421 0-232-105-413-317-413-206 0-314 166-314 413 0 249 111 421 314 421" id="ad"/><g id="j"><use transform="matrix(0.0087890625,0,0,0.0087890625,0,0)" xlink:href="#ab"/><use transform="matrix(0.0087890625,0,0,0.0087890625,13.1484375,0)" xlink:href="#z"/><use transform="matrix(0.0087890625,0,0,0.0087890625,23.94140625,0)" xlink:href="#ac"/><use transform="matrix(0.0087890625,0,0,0.0087890625,39.708984375,0)" xlink:href="#ad"/><use transform="matrix(0.0087890625,0,0,0.0087890625,50.73046875,0)" xlink:href="#C"/><use transform="matrix(0.0087890625,0,0,0.0087890625,55.08984375,0)" xlink:href="#D"/><use transform="matrix(0.0087890625,0,0,0.0087890625,65.583984375,0)" xlink:href="#F"/><use transform="matrix(0.0087890625,0,0,0.0087890625,71.296875,0)" xlink:href="#D"/><use transform="matrix(0.0087890625,0,0,0.0087890625,81.791015625,0)" xlink:href="#X"/></g><path d="M370-1490V0H180v-1490h190" id="ae"/><path d="M338-670V0H158v-1118h173l1 207c72-158 192-221 342-221 226 0 378 139 378 422V0H872v-695c0-172-96-275-252-275-161 0-282 109-282 300" id="af"/><g id="k"><use transform="matrix(0.0087890625,0,0,0.0087890625,0,0)" xlink:href="#ae"/><use transform="matrix(0.0087890625,0,0,0.0087890625,4.833984375,0)" xlink:href="#af"/></g><g id="l"><use transform="matrix(0.0087890625,0,0,0.0087890625,0,0)" xlink:href="#x"/><use transform="matrix(0.0087890625,0,0,0.0087890625,11.49609375,0)" xlink:href="#y"/><use transform="matrix(0.0087890625,0,0,0.0087890625,17.9736328125,0)" xlink:href="#z"/><use transform="matrix(0.0087890625,0,0,0.0087890625,28.7666015625,0)" xlink:href="#S"/><use transform="matrix(0.0087890625,0,0,0.0087890625,39.8056640625,0)" xlink:href="#y"/><use transform="matrix(0.0087890625,0,0,0.0087890625,46.283203125,0)" xlink:href="#D"/><use transform="matrix(0.0087890625,0,0,0.0087890625,56.77734375,0)" xlink:href="#Z"/><use transform="matrix(0.0087890625,0,0,0.0087890625,66.2783203125,0)" xlink:href="#Z"/></g><path d="M180 0v-1490h224l606 953c40 63 108 177 176 312-27-437-7-821-13-1265h190V0h-226C860-448 622-778 356-1262c27 476 11 792 15 1262H180" id="ag"/><g id="m"><use transform="matrix(0.0087890625,0,0,0.0087890625,0,0)" xlink:href="#ag"/><use transform="matrix(0.0087890625,0,0,0.0087890625,13.5615234375,0)" xlink:href="#z"/><use transform="matrix(0.0087890625,0,0,0.0087890625,24.3544921875,0)" xlink:href="#F"/></g><g id="n"><use transform="matrix(0.0087890625,0,0,0.0087890625,0,0)" xlink:href="#U"/><use transform="matrix(0.0087890625,0,0,0.0087890625,11.548828125,0)" xlink:href="#F"/><use transform="matrix(0.0087890625,0,0,0.0087890625,17.525390625,0)" xlink:href="#Y"/><use transform="matrix(0.0087890625,0,0,0.0087890625,27.6328125,0)" xlink:href="#y"/><use transform="matrix(0.0087890625,0,0,0.0087890625,34.6904296875,0)" xlink:href="#F"/><use transform="matrix(0.0087890625,0,0,0.0087890625,40.4033203125,0)" xlink:href="#D"/><use transform="matrix(0.0087890625,0,0,0.0087890625,50.8974609375,0)" xlink:href="#X"/></g><path d="M458 0L52-1490h194c108 439 233 855 324 1313 92-459 221-873 331-1313h216c110 438 234 854 330 1307 92-455 216-869 323-1307h196L1558 0h-221l-256-944c-26-95-50-200-73-331-22 122-44 223-73 331L680 0H458" id="ah"/><g id="o"><use transform="matrix(0.0087890625,0,0,0.0087890625,0,0)" xlink:href="#ah"/><use transform="matrix(0.0087890625,0,0,0.0087890625,16.822265625,0)" xlink:href="#D"/><use transform="matrix(0.0087890625,0,0,0.0087890625,27.31640625,0)" xlink:href="#D"/><use transform="matrix(0.0087890625,0,0,0.0087890625,37.810546875,0)" xlink:href="#aa"/></g><g id="p"><use transform="matrix(0.0087890625,0,0,0.0087890625,0,0)" xlink:href="#Y"/><use transform="matrix(0.0087890625,0,0,0.0087890625,10.107421875,0)" xlink:href="#F"/></g><use transform="matrix(0.0087890625,0,0,0.0087890625,0,0)" xlink:href="#Y" id="q"/><g id="r"><use transform="matrix(0.0087890625,0,0,0.0087890625,0,0)" xlink:href="#S"/><use transform="matrix(0.0087890625,0,0,0.0087890625,11.0390625,0)" xlink:href="#C"/><use transform="matrix(0.0087890625,0,0,0.0087890625,15.3984375,0)" xlink:href="#Y"/><use transform="matrix(0.0087890625,0,0,0.0087890625,25.505859375,0)" xlink:href="#af"/><use transform="matrix(0.0087890625,0,0,0.0087890625,36.140625,0)" xlink:href="#E"/><use transform="matrix(0.0087890625,0,0,0.0087890625,46.423828125,0)" xlink:href="#D"/></g><path d="M52 0l541-1490h220L1361 0h-200l-149-416H398L254 0H52zm404-582h497c-103-290-145-390-251-756-108 377-145 460-246 756" id="ai"/><g id="s"><use transform="matrix(0.009182942708333332,0,0,0.009182942708333332,0,0)" xlink:href="#ai"/><use transform="matrix(0.009182942708333332,0,0,0.009182942708333332,12.975498046874998,0)" xlink:href="#X"/><use transform="matrix(0.009182942708333332,0,0,0.009182942708333332,24.490908203124995,0)" xlink:href="#X"/></g><g id="t"><use transform="matrix(0.009182942708333332,0,0,0.009182942708333332,0,0)" xlink:href="#F"/><use transform="matrix(0.009182942708333332,0,0,0.009182942708333332,6.244401041666666,0)" xlink:href="#Y"/><use transform="matrix(0.009182942708333332,0,0,0.009182942708333332,16.80478515625,0)" xlink:href="#Z"/><use transform="matrix(0.009182942708333332,0,0,0.009182942708333332,26.73154622395833,0)" xlink:href="#aa"/></g><path d="M154 0v-137l495-537c165-179 249-281 249-418 0-156-121-253-280-253-170 0-278 110-278 278H158c0-264 200-443 465-443 266 0 455 183 455 416 0 161-73 288-336 568L416-179v12h687V0H154" id="aj"/><path d="M646 20c-332 0-524-278-524-764 0-483 194-766 524-766s524 283 524 766c0 485-191 764-524 764zm0-166c218 0 341-220 341-598 0-380-123-601-341-601s-341 222-341 601c0 378 123 598 341 598" id="ak"/><path d="M1490 29c-191 0-293-139-293-303v-78c0-164 105-302 293-302 192 0 291 139 291 302v78c0 164-102 303-291 303zM523-831c-191 0-293-139-293-303v-78c0-164 105-302 293-302 192 0 291 139 291 302v78c0 164-102 303-291 303zM404 0l1024-1490h169L573 0H404zm1086-102c130-4 138-119 138-250 0-88-34-172-138-172-129 0-140 119-140 250 0 89 37 172 140 172zM523-962c130-4 138-119 138-250 0-88-34-172-138-172-129 0-140 119-140 250 0 89 37 172 140 172" id="al"/><g id="u"><use transform="matrix(0.01953125,0,0,0.01953125,0,0)" xlink:href="#aj"/><use transform="matrix(0.01953125,0,0,0.01953125,24.39453125,0)" xlink:href="#ak"/><use transform="matrix(0.01953125,0,0,0.01953125,49.62890625,0)" xlink:href="#al"/></g><path d="M626 20c-262 0-458-168-468-396h184c12 133 134 229 284 229 180 0 311-137 311-326 0-192-136-335-323-335-92 0-196 33-255 78l-178-22 88-738h784v167H429l-51 435h8c61-51 160-87 263-87 273 0 474 211 474 499 0 286-210 496-497 496" id="am"/><g id="v"><use transform="matrix(0.01953125,0,0,0.01953125,0,0)" xlink:href="#am"/><use transform="matrix(0.01953125,0,0,0.01953125,24.31640625,0)" xlink:href="#ak"/><use transform="matrix(0.01953125,0,0,0.01953125,49.55078125,0)" xlink:href="#al"/></g><path d="M635 20c-292 0-500-160-510-396h192c11 142 145 229 315 229 187 0 323-105 323-260 0-161-125-274-346-274H488v-165h121c174 0 294-100 294-254 0-148-104-245-266-245-152 0-291 85-297 230H157c8-234 222-395 484-395 278 0 448 188 448 400 0 168-95 291-247 336v12c190 31 301 169 301 357 0 244-216 425-508 425" id="an"/><g id="w"><use transform="matrix(0.01953125,0,0,0.01953125,0,0)" xlink:href="#an"/><use transform="matrix(0.01953125,0,0,0.01953125,24.70703125,0)" xlink:href="#ak"/><use transform="matrix(0.01953125,0,0,0.01953125,49.94140625,0)" xlink:href="#al"/></g></defs></g></svg>